<svg xmlns="http://www.w3.org/2000/svg" width="1280" height="820" viewBox="0 0 1280 820" role="img" aria-label="Business command center"><defs><linearGradient id="side" x1="0" y1="0" x2="1" y2="1"><stop stop-color="#0d1f31"/><stop offset="1" stop-color="#073f3c"/></linearGradient><linearGradient id="hero" x1="0" y1="0" x2="1" y2="1"><stop stop-color="#0d1625"/><stop offset=".55" stop-color="#0c4f4b"/><stop offset="1" stop-color="#168f80"/></linearGradient><filter id="shadow" x="-20%" y="-20%" width="140%" height="140%"><feDropShadow dx="0" dy="22" stdDeviation="22" flood-color="#0f172a" flood-opacity=".16"/></filter><style>.bg{fill:#f3f7fb}.panel{fill:#fff;stroke:#dce6ef;stroke-width:1}.side{fill:url(#side)}.hero{fill:url(#hero)}.muted{fill:#657084}.ink{fill:#101827}.white{fill:#fff}.teal{fill:#00796f}.txt{font-family:Aptos,Segoe UI,Arial,sans-serif}.h1{font-size:42px;font-weight:850}.h3{font-size:18px;font-weight:800}.small{font-size:14px;font-weight:650}.micro{font-size:12px;font-weight:750;letter-spacing:.08em}.body{font-size:15px}.num{font-size:36px;font-weight:850}.badge{font-size:12px;font-weight:800}</style></defs><rect class="bg" width="1280" height="820"/><rect class="side" width="238" height="820"/><text class="txt white h3" x="32" y="54">Welcome Ophyra</text><rect x="32" y="92" width="174" height="3" fill="#44e0d0"/><text class="txt micro" fill="#b7c6d6" x="32" y="158">WORKSPACES</text><rect x="24" y="181" width="190" height="48" rx="18" fill="#213246"/><text class="txt" fill="#d8e2ea" font-size="15" font-weight="750" x="66" y="211">Dashboard</text><rect x="24" y="243" width="190" height="48" rx="18" fill="#213246"/><text class="txt" fill="#d8e2ea" font-size="15" font-weight="750" x="66" y="273">Services</text><rect x="24" y="305" width="190" height="48" rx="18" fill="#213246"/><text class="txt" fill="#d8e2ea" font-size="15" font-weight="750" x="66" y="335">Store + Logistics</text><text class="txt micro" fill="#b7c6d6" x="32" y="410">PEOPLE</text><rect x="24" y="433" width="190" height="48" rx="18" fill="#213246"/><text class="txt" fill="#d8e2ea" font-size="15" font-weight="750" x="66" y="463">Customers</text><rect x="24" y="495" width="190" height="48" rx="18" fill="#213246"/><text class="txt" fill="#d8e2ea" font-size="15" font-weight="750" x="66" y="525">Team</text><rect x="260" y="24" width="990" height="72" rx="26" fill="#fff" filter="url(#shadow)"/><rect x="292" y="40" width="420" height="40" rx="20" fill="#f8fbfd" stroke="#dfe7ef"/><text class="txt muted body" x="322" y="65">Search clients, orders, products, modules...</text><circle cx="1144" cy="60" r="20" fill="#eef8f7"/><circle cx="1196" cy="60" r="20" fill="#eef8f7"/><rect class="hero" x="278" y="126" width="944" height="176" rx="28"/><text class="txt micro" fill="#9ff3e8" x="314" y="168">CURRENT VIEW</text><text class="txt white h1" x="314" y="224">Business command center</text><rect class="panel" x="278" y="330" width="220" height="106" rx="18"/><text class="txt micro muted" x="302" y="362">ACTIVE ORDERS</text><text class="txt num ink" x="302" y="406">42</text><rect class="panel" x="516" y="330" width="220" height="106" rx="18"/><text class="txt micro muted" x="540" y="362">CLIENTS</text><text class="txt num ink" x="540" y="406">318</text><rect class="panel" x="754" y="330" width="220" height="106" rx="18"/><text class="txt micro muted" x="778" y="362">TEAM TASKS</text><text class="txt num ink" x="778" y="406">76</text><rect class="panel" x="992" y="330" width="220" height="106" rx="18"/><text class="txt micro muted" x="1016" y="362">REVENUE</text><text class="txt num ink" x="1016" y="406">$18.4k</text><rect class="panel" x="278" y="468" width="944" height="300" rx="22"/><rect x="302" y="496" width="896" height="42" rx="12" fill="#f5f8fb"/><text class="txt micro muted" x="322" y="523">WORKSPACE</text><text class="txt micro muted" x="502" y="523">STATUS</text><text class="txt micro muted" x="682" y="523">OWNER</text><text class="txt micro muted" x="862" y="523">NEXT ACTION</text><text class="txt micro muted" x="1042" y="523">HEALTH</text><line x1="302" x2="1198" y1="544" y2="544" stroke="#edf1f5"/><text class="txt body ink" x="322" y="566">Services</text><text class="txt body ink" x="502" y="566">Active</text><text class="txt body ink" x="682" y="566">Leonardo</text><text class="txt body ink" x="862" y="566">Review tasks</text><rect x="1042" y="540" width="116" height="28" rx="14" fill="#e8fff7"/><text class="txt badge teal" x="1058" y="558">Ready</text><line x1="302" x2="1198" y1="600" y2="600" stroke="#edf1f5"/><text class="txt body ink" x="322" y="622">Store + Logistics</text><text class="txt body ink" x="502" y="622">Active</text><text class="txt body ink" x="682" y="622">Ops team</text><text class="txt body ink" x="862" y="622">Pack 14 orders</text><rect x="1042" y="596" width="116" height="28" rx="14" fill="#e8fff7"/><text class="txt badge teal" x="1058" y="614">Live</text><line x1="302" x2="1198" y1="656" y2="656" stroke="#edf1f5"/><text class="txt body ink" x="322" y="678">Advanced Storage</text><text class="txt body ink" x="502" y="678">Active</text><text class="txt body ink" x="682" y="678">Warehouse</text><text class="txt body ink" x="862" y="678">Scan inventory</text><rect x="1042" y="652" width="116" height="28" rx="14" fill="#e8fff7"/><text class="txt badge teal" x="1058" y="670">Synced</text><line x1="302" x2="1198" y1="712" y2="712" stroke="#edf1f5"/><text class="txt body ink" x="322" y="734">Billing</text><text class="txt body ink" x="502" y="734">Current</text><text class="txt body ink" x="682" y="734">Admin</text><text class="txt body ink" x="862" y="734">Next renewal</text><rect x="1042" y="708" width="116" height="28" rx="14" fill="#e8fff7"/><text class="txt badge teal" x="1058" y="726">Clear</text></svg>