<svg xmlns="http://www.w3.org/2000/svg" width="1280" height="820" viewBox="0 0 1280 820" role="img" aria-label="Fulfillment command board"><defs><linearGradient id="side" x1="0" y1="0" x2="1" y2="1"><stop stop-color="#0d1f31"/><stop offset="1" stop-color="#073f3c"/></linearGradient><linearGradient id="hero" x1="0" y1="0" x2="1" y2="1"><stop stop-color="#0d1625"/><stop offset=".55" stop-color="#0c4f4b"/><stop offset="1" stop-color="#0d9488"/></linearGradient><filter id="shadow" x="-20%" y="-20%" width="140%" height="140%"><feDropShadow dx="0" dy="22" stdDeviation="22" flood-color="#0f172a" flood-opacity=".16"/></filter><style>.bg{fill:#f3f7fb}.panel{fill:#fff;stroke:#dce6ef;stroke-width:1}.side{fill:url(#side)}.hero{fill:url(#hero)}.muted{fill:#657084}.ink{fill:#101827}.white{fill:#fff}.teal{fill:#00796f}.txt{font-family:Aptos,Segoe UI,Arial,sans-serif}.h1{font-size:42px;font-weight:850}.h3{font-size:18px;font-weight:800}.small{font-size:14px;font-weight:650}.micro{font-size:12px;font-weight:750;letter-spacing:.08em}.body{font-size:15px}.num{font-size:36px;font-weight:850}.badge{font-size:12px;font-weight:800}</style></defs><rect class="bg" width="1280" height="820"/><rect class="side" width="238" height="820"/><text class="txt white h3" x="32" y="54">Welcome Ophyra</text><rect x="32" y="92" width="174" height="3" fill="#44e0d0"/><text class="txt micro" fill="#b7c6d6" x="32" y="158">WORKSPACES</text><rect x="24" y="181" width="190" height="48" rx="18" fill="#213246"/><text class="txt" fill="#d8e2ea" font-size="15" font-weight="750" x="66" y="211">Dashboard</text><rect x="24" y="243" width="190" height="48" rx="18" fill="#213246"/><text class="txt" fill="#d8e2ea" font-size="15" font-weight="750" x="66" y="273">Services</text><rect x="24" y="305" width="190" height="48" rx="18" fill="#213246"/><text class="txt" fill="#d8e2ea" font-size="15" font-weight="750" x="66" y="335">Store + Logistics</text><text class="txt micro" fill="#b7c6d6" x="32" y="410">PEOPLE</text><rect x="24" y="433" width="190" height="48" rx="18" fill="#213246"/><text class="txt" fill="#d8e2ea" font-size="15" font-weight="750" x="66" y="463">Customers</text><rect x="24" y="495" width="190" height="48" rx="18" fill="#213246"/><text class="txt" fill="#d8e2ea" font-size="15" font-weight="750" x="66" y="525">Team</text><rect x="260" y="24" width="990" height="72" rx="26" fill="#fff" filter="url(#shadow)"/><rect x="292" y="40" width="420" height="40" rx="20" fill="#f8fbfd" stroke="#dfe7ef"/><text class="txt muted body" x="322" y="65">Search clients, orders, products, modules...</text><circle cx="1144" cy="60" r="20" fill="#eef8f7"/><circle cx="1196" cy="60" r="20" fill="#eef8f7"/><rect class="hero" x="278" y="126" width="944" height="176" rx="28"/><text class="txt micro" fill="#9ff3e8" x="314" y="168">RETAIL ONLINE STORES</text><text class="txt white h1" x="314" y="224">Fulfillment command board</text><rect class="panel" x="278" y="330" width="220" height="106" rx="18"/><text class="txt micro muted" x="302" y="362">ORDERS</text><text class="txt num ink" x="302" y="406">126</text><rect class="panel" x="516" y="330" width="220" height="106" rx="18"/><text class="txt micro muted" x="540" y="362">PACKING</text><text class="txt num ink" x="540" y="406">31</text><rect class="panel" x="754" y="330" width="220" height="106" rx="18"/><text class="txt micro muted" x="778" y="362">OUT DELIVERY</text><text class="txt num ink" x="778" y="406">18</text><rect class="panel" x="992" y="330" width="220" height="106" rx="18"/><text class="txt micro muted" x="1016" y="362">RETURNS</text><text class="txt num ink" x="1016" y="406">4</text><rect class="panel" x="278" y="468" width="216" height="300" rx="22"/><text class="txt micro muted" x="300" y="504">PAID</text><rect x="296" y="530" width="180" height="74" rx="16" fill="#f8fbfd" stroke="#dfe7ef"/><text class="txt h3 ink" x="312" y="558">Amanda T.</text><text class="txt small muted" x="312" y="584">$86.40</text><rect x="296" y="618" width="180" height="74" rx="16" fill="#f8fbfd" stroke="#dfe7ef"/><text class="txt h3 ink" x="312" y="646">Laura M.</text><text class="txt small muted" x="312" y="672">$72.00</text><rect class="panel" x="514" y="468" width="216" height="300" rx="22"/><text class="txt micro muted" x="536" y="504">PREPARING</text><rect x="532" y="530" width="180" height="74" rx="16" fill="#f8fbfd" stroke="#dfe7ef"/><text class="txt h3 ink" x="548" y="558">Weekly kit #204</text><text class="txt small muted" x="548" y="584">5 meals</text><rect x="532" y="618" width="180" height="74" rx="16" fill="#f8fbfd" stroke="#dfe7ef"/><text class="txt h3 ink" x="548" y="646">Catering box</text><text class="txt small muted" x="548" y="672">12 items</text><rect class="panel" x="750" y="468" width="216" height="300" rx="22"/><text class="txt micro muted" x="772" y="504">DELIVERY</text><rect x="768" y="530" width="180" height="74" rx="16" fill="#f8fbfd" stroke="#dfe7ef"/><text class="txt h3 ink" x="784" y="558">Route Miami</text><text class="txt small muted" x="784" y="584">Driver Leo</text><rect x="768" y="618" width="180" height="74" rx="16" fill="#f8fbfd" stroke="#dfe7ef"/><text class="txt h3 ink" x="784" y="646">Route Weston</text><text class="txt small muted" x="784" y="672">Driver Ana</text><rect class="panel" x="986" y="468" width="216" height="300" rx="22"/><text class="txt micro muted" x="1008" y="504">COMPLETED</text><rect x="1004" y="530" width="180" height="74" rx="16" fill="#f8fbfd" stroke="#dfe7ef"/><text class="txt h3 ink" x="1020" y="558">Order 5932</text><text class="txt small muted" x="1020" y="584">Photo proof</text><rect x="1004" y="618" width="180" height="74" rx="16" fill="#f8fbfd" stroke="#dfe7ef"/><text class="txt h3 ink" x="1020" y="646">Order 5936</text><text class="txt small muted" x="1020" y="672">Delivered</text></svg>